<?xml version="1.0" standalone="no"?>
<!DOCTYPE svg PUBLIC "-//W3C//DTD SVG 20010904//EN"
 "http://www.w3.org/TR/2001/REC-SVG-20010904/DTD/svg10.dtd">
<svg version="1.0" xmlns="http://www.w3.org/2000/svg"
 width="647.000000pt" height="647.000000pt" viewBox="0 0 647.000000 647.000000"
 preserveAspectRatio="xMidYMid meet">
<metadata>
Created by potrace 1.11, written by Peter Selinger 2001-2013
</metadata>
<g transform="translate(0.000000,647.000000) scale(0.100000,-0.100000)"
fill="#000000" stroke="none">
<path d="M1740 4723 c178 -30 387 -104 527 -187 96 -57 232 -156 272 -200 l24
-26 664 0 664 0 72 62 c210 181 490 309 767 351 14 3 -659 4 -1495 4 -836 0
-1509 -2 -1495 -4z"/>
<path d="M1385 4193 c-218 -46 -318 -90 -468 -211 -140 -111 -269 -314 -319
-502 -32 -123 -32 -358 1 -480 115 -429 485 -720 916 -720 358 0 677 199 840
525 73 144 96 236 102 400 4 105 1 148 -15 227 -47 225 -178 437 -353 570
-132 100 -240 149 -401 182 -71 15 -252 20 -303 9z m324 -234 c231 -63 419
-242 496 -470 87 -254 40 -517 -130 -731 -86 -109 -240 -207 -385 -245 -88
-23 -263 -23 -350 0 -261 70 -456 265 -531 532 -32 112 -32 278 0 389 83 296
309 499 606 547 73 11 212 1 294 -22z"/>
<path d="M4835 4193 c-218 -46 -318 -90 -468 -211 -140 -111 -269 -314 -319
-502 -32 -123 -32 -358 1 -480 115 -429 485 -720 916 -720 358 0 677 199 840
525 73 144 96 236 102 400 4 105 1 148 -15 227 -47 225 -178 437 -353 570
-132 100 -240 149 -401 182 -71 15 -252 20 -303 9z m324 -234 c231 -63 419
-242 496 -470 87 -254 40 -517 -130 -731 -86 -109 -240 -207 -385 -245 -88
-23 -263 -23 -350 0 -261 70 -456 265 -531 532 -32 112 -32 278 0 389 83 296
309 499 606 547 73 11 212 1 294 -22z"/>
<path d="M2890 3850 c27 -54 76 -206 97 -297 l18 -83 197 -2 c109 -1 210 -2
224 -2 25 -1 28 3 55 114 15 63 44 155 63 204 20 50 35 91 33 92 -1 1 -160 4
-353 6 l-352 3 18 -35z"/>
</g>
</svg>
